<?xml version="1.0" encoding="UTF-8" standalone="no"?>
<!-- Created with Fritzing (http://www.fritzing.org/) -->

<svg
   xmlns:dc="http://purl.org/dc/elements/1.1/"
   xmlns:cc="http://creativecommons.org/ns#"
   xmlns:rdf="http://www.w3.org/1999/02/22-rdf-syntax-ns#"
   xmlns:svg="http://www.w3.org/2000/svg"
   xmlns="http://www.w3.org/2000/svg"
   xmlns:sodipodi="http://sodipodi.sourceforge.net/DTD/sodipodi-0.dtd"
   xmlns:inkscape="http://www.inkscape.org/namespaces/inkscape"
   version="1.2"
   x="0in"
   y="0in"
   width="1.2in"
   height="0.63in"
   viewBox="0 0 86.4 45.36"
   id="svg355"
   sodipodi:docname="YAMAHA-YM2151-breadboard.svg"
   inkscape:version="0.92.4 (5da689c313, 2019-01-14)">
  <metadata
     id="metadata361">
    <rdf:RDF>
      <cc:Work
         rdf:about="">
        <dc:format>image/svg+xml</dc:format>
        <dc:type
           rdf:resource="http://purl.org/dc/dcmitype/StillImage" />
      </cc:Work>
    </rdf:RDF>
  </metadata>
  <defs
     id="defs359" />
  <sodipodi:namedview
     pagecolor="#ffffff"
     bordercolor="#666666"
     borderopacity="1"
     objecttolerance="10"
     gridtolerance="10"
     guidetolerance="10"
     inkscape:pageopacity="0"
     inkscape:pageshadow="2"
     inkscape:window-width="1920"
     inkscape:window-height="1051"
     id="namedview357"
     showgrid="true"
     inkscape:zoom="3.9021164"
     inkscape:cx="20.953223"
     inkscape:cy="30.24"
     inkscape:window-x="-9"
     inkscape:window-y="-9"
     inkscape:window-maximized="1"
     inkscape:current-layer="breadboard">
    <inkscape:grid
       type="xygrid"
       id="grid451" />
  </sodipodi:namedview>
  <g
     partID="60550"
     id="g353">
    <g
       id="breadboard"
       gorn="0.1">
      <rect
         width="86.400002"
         id="middle"
         gorn="0.1.0"
         y="2.1600001"
         x="0"
         height="41.040001"
         sodipodi:insensitive="true"
         style="fill:#303030" />
      <rect
         width="86.4"
         id="top"
         gorn="0.1.1"
         y="2.16"
         x="0"
         height="1.7712"
         fill="#3D3D3D" />
      <rect
         width="86.4"
         id="bottom"
         gorn="0.1.2"
         y="41.4288"
         x="0"
         height="1.7712"
         fill="#000000" />
      <polygon
         id="right"
         gorn="0.1.3"
         points="86.4,2.16,85.86,3.9312,85.86,41.4288,86.4,43.2"
         fill="#141414" />
      <polygon
         id="left"
         gorn="0.1.4"
         points="0,2.16,0.54,3.9312,0.54,41.4288,0,43.2"
         fill="#1F1F1F" />
      <polygon
         id="left-upper-rect"
         gorn="0.1.5"
         points="3.6,19.08,0.54,19.0512,0.4032,20.5776,0.4032,22.68,3.6,22.68"
         fill="#1C1C1C" />
      <polygon
         id="left-lower-rect"
         gorn="0.1.6"
         points="0.54,26.316,3.6,26.316,3.6,22.68,0.4032,22.68,0.4032,24.7824"
         fill="#383838" />
      <path
         id="slot"
         gorn="0.1.7"
         d="M0.4032,20.5776l0,4.1976c1.0584,-0.1224,1.8864,-1.008,1.8864,-2.1024C2.2896,21.5784,1.4688,20.7,0.4032,20.5776z"
         fill="#262626" />
      <path
         id="cover"
         gorn="0.1.8"
         d="M0.54,3.9312L0.54,19.044c1.7136,0.324,3.0168,1.8216,3.0168,3.6288c0,1.8072,-1.296,3.312,-3.0168,3.636L0.54,26.316l3.6,0L4.14,3.9312L0.54,3.9312z"
         fill="#303030" />
      <circle
         cy="38.4984"
         cx="4.68"
         r="1.4832"
         id="circle253"
         fill="#212121" />
      <text
         font-size="7.2"
         id="label"
         gorn="0.1.10"
         y="44.206779"
         x="90.21051"
         style="font-size:7.19999981px;font-family:OCRA;text-anchor:start;display:none;fill:#d6d6d6;stroke:none">YM2151</text>
      <rect
         width="2.16"
         id="connector0pin"
         gorn="0.1.11"
         y="42.2352"
         x="2.52"
         height="3.1248"
         fill="#8C8C8C" />
      <g
         width="2.16"
         id="connector0terminal"
         gorn="0.1.12"
         y="43.2"
         x="2.52"
         height="2.16"
         fill="#8C8C8C" />
      <polygon
         points="2.52,42.2352,2.52,43.6752,4.68,43.6752,6.12,43.0128,6.12,42.2352"
         id="polygon258"
         fill="#8C8C8C" />
      <rect
         width="2.16"
         id="connector23pin"
         gorn="0.1.14"
         x="2.52"
         height="3.1248"
         fill="#8C8C8C" />
      <g
         width="2.16"
         id="connector23terminal"
         gorn="0.1.15"
         x="2.52"
         height="2.16"
         fill="#8C8C8C" />
      <polygon
         points="6.12,3.1248,6.12,2.3472,4.68,1.6848,2.52,1.6848,2.52,3.1248"
         id="polygon262"
         fill="#8C8C8C" />
      <rect
         width="2.16"
         id="connector11pin"
         gorn="0.1.17"
         y="42.2352"
         x="81.72"
         height="3.1248"
         fill="#8C8C8C" />
      <g
         width="2.16"
         id="connector11terminal"
         gorn="0.1.18"
         y="43.2"
         x="81.72"
         height="2.16"
         fill="#8C8C8C" />
      <polygon
         points="80.28,42.2352,80.28,43.0128,81.72,43.6752,83.88,43.6752,83.88,42.2352"
         id="polygon266"
         fill="#8C8C8C" />
      <rect
         width="2.16"
         id="connector12pin"
         gorn="0.1.20"
         y="0"
         x="81.72"
         height="3.1248"
         fill="#8C8C8C" />
      <g
         width="2.16"
         id="connector12terminal"
         gorn="0.1.21"
         y="0"
         x="81.72"
         height="2.16"
         fill="#8C8C8C" />
      <polygon
         points="83.88,3.1248,83.88,1.6848,81.72,1.6848,80.28,2.3472,80.28,3.1248"
         id="polygon270"
         fill="#8C8C8C" />
      <rect
         width="2.16"
         id="connector22pin"
         gorn="0.1.23"
         y="0"
         x="9.72"
         height="3.1248"
         fill="#8C8C8C" />
      <g
         width="2.16"
         id="connector22terminal"
         gorn="0.1.24"
         x="9.72"
         height="2.16"
         fill="#8C8C8C" />
      <polygon
         points="13.32,3.1248,13.32,2.3472,11.88,1.6848,9.72,1.6848,8.28,2.3472,8.28,3.1248"
         id="polygon274"
         fill="#8C8C8C" />
      <rect
         width="2.16"
         id="connector21pin"
         gorn="0.1.26"
         y="0"
         x="16.92"
         height="3.1248"
         fill="#8C8C8C" />
      <g
         width="2.16"
         id="connector21terminal"
         gorn="0.1.27"
         x="16.92"
         height="2.16"
         fill="#8C8C8C" />
      <polygon
         points="20.52,3.1248,20.52,2.3472,19.08,1.6848,16.92,1.6848,15.48,2.3472,15.48,3.1248"
         id="polygon278"
         fill="#8C8C8C" />
      <rect
         width="2.16"
         id="connector20pin"
         gorn="0.1.29"
         y="0"
         x="24.12"
         height="3.1248"
         fill="#8C8C8C" />
      <g
         width="2.16"
         id="connector20terminal"
         gorn="0.1.30"
         x="24.12"
         height="2.16"
         fill="#8C8C8C" />
      <polygon
         points="27.72,3.1248,27.72,2.3472,26.28,1.6848,24.12,1.6848,22.68,2.3472,22.68,3.1248"
         id="polygon282"
         fill="#8C8C8C" />
      <rect
         width="2.16"
         id="connector19pin"
         gorn="0.1.32"
         y="0"
         x="31.32"
         height="3.1248"
         fill="#8C8C8C" />
      <g
         width="2.16"
         id="connector19terminal"
         gorn="0.1.33"
         x="31.32"
         height="2.16"
         fill="#8C8C8C" />
      <polygon
         points="34.92,3.1248,34.92,2.3472,33.48,1.6848,31.32,1.6848,29.88,2.3472,29.88,3.1248"
         id="polygon286"
         fill="#8C8C8C" />
      <rect
         width="2.16"
         id="connector18pin"
         gorn="0.1.35"
         y="0"
         x="38.52"
         height="3.1248"
         fill="#8C8C8C" />
      <g
         width="2.16"
         id="connector18terminal"
         gorn="0.1.36"
         x="38.52"
         height="2.16"
         fill="#8C8C8C" />
      <polygon
         points="42.12,3.1248,42.12,2.3472,40.68,1.6848,38.52,1.6848,37.08,2.3472,37.08,3.1248"
         id="polygon290"
         fill="#8C8C8C" />
      <rect
         width="2.16"
         id="connector17pin"
         gorn="0.1.38"
         y="0"
         x="45.72"
         height="3.1248"
         fill="#8C8C8C" />
      <g
         width="2.16"
         id="connector17terminal"
         gorn="0.1.39"
         x="45.72"
         height="2.16"
         fill="#8C8C8C" />
      <polygon
         points="49.32,3.1248,49.32,2.3472,47.88,1.6848,45.72,1.6848,44.28,2.3472,44.28,3.1248"
         id="polygon294"
         fill="#8C8C8C" />
      <rect
         width="2.16"
         id="connector16pin"
         gorn="0.1.41"
         y="0"
         x="52.92"
         height="3.1248"
         fill="#8C8C8C" />
      <g
         width="2.16"
         id="connector16terminal"
         gorn="0.1.42"
         x="52.92"
         height="2.16"
         fill="#8C8C8C" />
      <polygon
         points="56.52,3.1248,56.52,2.3472,55.08,1.6848,52.92,1.6848,51.48,2.3472,51.48,3.1248"
         id="polygon298"
         fill="#8C8C8C" />
      <rect
         width="2.16"
         id="connector15pin"
         gorn="0.1.44"
         y="0"
         x="60.12"
         height="3.1248"
         fill="#8C8C8C" />
      <g
         width="2.16"
         id="connector15terminal"
         gorn="0.1.45"
         x="60.12"
         height="2.16"
         fill="#8C8C8C" />
      <polygon
         points="63.72,3.1248,63.72,2.3472,62.28,1.6848,60.12,1.6848,58.68,2.3472,58.68,3.1248"
         id="polygon302"
         fill="#8C8C8C" />
      <rect
         width="2.16"
         id="connector14pin"
         gorn="0.1.47"
         y="0"
         x="67.32"
         height="3.1248"
         fill="#8C8C8C" />
      <g
         width="2.16"
         id="connector14terminal"
         gorn="0.1.48"
         x="67.32"
         height="2.16"
         fill="#8C8C8C" />
      <polygon
         points="70.92,3.1248,70.92,2.3472,69.48,1.6848,67.32,1.6848,65.88,2.3472,65.88,3.1248"
         id="polygon306"
         fill="#8C8C8C" />
      <rect
         width="2.16"
         id="connector13pin"
         gorn="0.1.50"
         y="0"
         x="74.52"
         height="3.1248"
         fill="#8C8C8C" />
      <g
         width="2.16"
         id="connector13terminal"
         gorn="0.1.51"
         x="74.52"
         height="2.16"
         fill="#8C8C8C" />
      <polygon
         points="78.12,3.1248,78.12,2.3472,76.68,1.6848,74.52,1.6848,73.08,2.3472,73.08,3.1248"
         id="polygon310"
         fill="#8C8C8C" />
      <rect
         width="2.16"
         id="connector1pin"
         gorn="0.1.53"
         y="42.2352"
         x="9.72"
         height="3.1248"
         fill="#8C8C8C" />
      <g
         width="2.16"
         id="connector1terminal"
         gorn="0.1.54"
         y="43.2"
         x="9.72"
         height="2.16"
         fill="#8C8C8C" />
      <polygon
         points="8.28,42.2352,8.28,43.0128,9.72,43.6752,11.88,43.6752,13.32,43.0128,13.32,42.2352"
         id="polygon314"
         fill="#8C8C8C" />
      <rect
         width="2.16"
         id="connector2pin"
         gorn="0.1.56"
         y="42.2352"
         x="16.92"
         height="3.1248"
         fill="#8C8C8C" />
      <g
         width="2.16"
         id="connector2terminal"
         gorn="0.1.57"
         y="43.2"
         x="16.92"
         height="2.16"
         fill="#8C8C8C" />
      <polygon
         points="15.48,42.2352,15.48,43.0128,16.92,43.6752,19.08,43.6752,20.52,43.0128,20.52,42.2352"
         id="polygon318"
         fill="#8C8C8C" />
      <rect
         width="2.16"
         id="connector3pin"
         gorn="0.1.59"
         y="42.2352"
         x="24.12"
         height="3.1248"
         fill="#8C8C8C" />
      <g
         width="2.16"
         id="connector3terminal"
         gorn="0.1.60"
         y="43.2"
         x="24.12"
         height="2.16"
         fill="#8C8C8C" />
      <polygon
         points="22.68,42.2352,22.68,43.0128,24.12,43.6752,26.28,43.6752,27.72,43.0128,27.72,42.2352"
         id="polygon322"
         fill="#8C8C8C" />
      <rect
         width="2.16"
         id="connector4pin"
         gorn="0.1.62"
         y="42.2352"
         x="31.32"
         height="3.1248"
         fill="#8C8C8C" />
      <g
         width="2.16"
         id="connector4terminal"
         gorn="0.1.63"
         y="43.2"
         x="31.32"
         height="2.16"
         fill="#8C8C8C" />
      <polygon
         points="29.88,42.2352,29.88,43.0128,31.32,43.6752,33.48,43.6752,34.92,43.0128,34.92,42.2352"
         id="polygon326"
         fill="#8C8C8C" />
      <rect
         width="2.16"
         id="connector5pin"
         gorn="0.1.65"
         y="42.2352"
         x="38.52"
         height="3.1248"
         fill="#8C8C8C" />
      <g
         width="2.16"
         id="connector5terminal"
         gorn="0.1.66"
         y="43.2"
         x="38.52"
         height="2.16"
         fill="#8C8C8C" />
      <polygon
         points="37.08,42.2352,37.08,43.0128,38.52,43.6752,40.68,43.6752,42.12,43.0128,42.12,42.2352"
         id="polygon330"
         fill="#8C8C8C" />
      <rect
         width="2.16"
         id="connector6pin"
         gorn="0.1.68"
         y="42.2352"
         x="45.72"
         height="3.1248"
         fill="#8C8C8C" />
      <g
         width="2.16"
         id="connector6terminal"
         gorn="0.1.69"
         y="43.2"
         x="45.72"
         height="2.16"
         fill="#8C8C8C" />
      <polygon
         points="44.28,42.2352,44.28,43.0128,45.72,43.6752,47.88,43.6752,49.32,43.0128,49.32,42.2352"
         id="polygon334"
         fill="#8C8C8C" />
      <rect
         width="2.16"
         id="connector7pin"
         gorn="0.1.71"
         y="42.2352"
         x="52.92"
         height="3.1248"
         fill="#8C8C8C" />
      <g
         width="2.16"
         id="connector7terminal"
         gorn="0.1.72"
         y="43.2"
         x="52.92"
         height="2.16"
         fill="#8C8C8C" />
      <polygon
         points="51.48,42.2352,51.48,43.0128,52.92,43.6752,55.08,43.6752,56.52,43.0128,56.52,42.2352"
         id="polygon338"
         fill="#8C8C8C" />
      <rect
         width="2.16"
         id="connector8pin"
         gorn="0.1.74"
         y="42.2352"
         x="60.12"
         height="3.1248"
         fill="#8C8C8C" />
      <g
         width="2.16"
         id="connector8terminal"
         gorn="0.1.75"
         y="43.2"
         x="60.12"
         height="2.16"
         fill="#8C8C8C" />
      <polygon
         points="58.68,42.2352,58.68,43.0128,60.12,43.6752,62.28,43.6752,63.72,43.0128,63.72,42.2352"
         id="polygon342"
         fill="#8C8C8C" />
      <rect
         width="2.16"
         id="connector9pin"
         gorn="0.1.77"
         y="42.2352"
         x="67.32"
         height="3.1248"
         fill="#8C8C8C" />
      <g
         width="2.16"
         id="connector9terminal"
         gorn="0.1.78"
         y="43.2"
         x="67.32"
         height="2.16"
         fill="#8C8C8C" />
      <polygon
         points="65.88,42.2352,65.88,43.0128,67.32,43.6752,69.48,43.6752,70.92,43.0128,70.92,42.2352"
         id="polygon346"
         fill="#8C8C8C" />
      <rect
         width="2.16"
         id="connector10pin"
         gorn="0.1.80"
         y="42.2352"
         x="74.52"
         height="3.1248"
         fill="#8C8C8C" />
      <g
         width="2.16"
         id="connector10terminal"
         gorn="0.1.81"
         y="43.2"
         x="74.52"
         height="2.16"
         fill="#8C8C8C" />
      <polygon
         points="73.08,42.2352,73.08,43.0128,74.52,43.6752,76.68,43.6752,78.12,43.0128,78.12,42.2352"
         id="polygon350"
         fill="#8C8C8C" />
      <text
         font-size="7.2"
         id="label-5"
         gorn="0.1.10"
         y="18.953085"
         x="19.366806"
         style="font-size:7.20000029px;font-family:OCRA;text-anchor:start;fill:#d6d6d6;stroke:none;stroke-width:1">
        <tspan
           style="font-style:normal;font-variant:normal;font-weight:normal;font-stretch:normal;font-size:5px;line-height:1;font-family:OCRA;-inkscape-font-specification:OCRA"
           id="tspan395">YAMAHA JAPAN</tspan>
      </text>
      <text
         font-size="7.2"
         id="label-5-8"
         gorn="0.1.10"
         y="30.677492"
         x="19.991795"
         style="font-size:7.20000076px;font-family:OCRA;text-anchor:start;fill:#d6d6d6;stroke:none;stroke-width:1">
        <tspan
           style="font-style:normal;font-variant:normal;font-weight:normal;font-stretch:normal;font-family:OCRA;-inkscape-font-specification:OCRA;stroke-width:1"
           id="tspan395-2">YM2151</tspan>
      </text>
      <circle
         style="fill:#212121;stroke-width:3.07339144"
         cy="23.256609"
         cx="12.877625"
         r="4.558454"
         id="circle253-8" />
      <circle
         style="fill:#212121;stroke-width:3.07339168"
         cy="22.679998"
         cx="74.574913"
         r="4.558454"
         id="circle253-8-4" />
    </g>
  </g>
</svg>
