<?xml version="1.0" encoding="UTF-8" standalone="no"?>
<!-- Created with Fritzing (http://www.fritzing.org/) -->

<svg
   xmlns:dc="http://purl.org/dc/elements/1.1/"
   xmlns:cc="http://creativecommons.org/ns#"
   xmlns:rdf="http://www.w3.org/1999/02/22-rdf-syntax-ns#"
   xmlns:svg="http://www.w3.org/2000/svg"
   xmlns="http://www.w3.org/2000/svg"
   xmlns:sodipodi="http://sodipodi.sourceforge.net/DTD/sodipodi-0.dtd"
   xmlns:inkscape="http://www.inkscape.org/namespaces/inkscape"
   version="1.2"
   x="0in"
   y="0in"
   width="0.3in"
   height="0.33in"
   viewBox="0 0 21.6 23.76"
   id="svg96"
   sodipodi:docname="YAMAHA-YM2151-icon.svg"
   inkscape:version="0.92.4 (5da689c313, 2019-01-14)">
  <metadata
     id="metadata102">
    <rdf:RDF>
      <cc:Work
         rdf:about="">
        <dc:format>image/svg+xml</dc:format>
        <dc:type
           rdf:resource="http://purl.org/dc/dcmitype/StillImage" />
      </cc:Work>
    </rdf:RDF>
  </metadata>
  <defs
     id="defs100" />
  <sodipodi:namedview
     pagecolor="#ffffff"
     bordercolor="#666666"
     borderopacity="1"
     objecttolerance="10"
     gridtolerance="10"
     guidetolerance="10"
     inkscape:pageopacity="0"
     inkscape:pageshadow="2"
     inkscape:window-width="1920"
     inkscape:window-height="1051"
     id="namedview98"
     showgrid="false"
     inkscape:zoom="19.150808"
     inkscape:cx="20.656658"
     inkscape:cy="14.031961"
     inkscape:window-x="-9"
     inkscape:window-y="-9"
     inkscape:window-maximized="1"
     inkscape:current-layer="icon" />
  <g
     partID="60240"
     id="g94">
    <g
       id="icon"
       gorn="0.1">
      <rect
         width="21.6"
         id="middle"
         gorn="0.1.0"
         y="2.16"
         x="0"
         height="19.44"
         fill="#303030" />
      <rect
         width="21.6"
         fill="#3D3D3D"
         id="top"
         gorn="0.1.1"
         y="2.16"
         x="0"
         height="1.7712" />
      <rect
         width="21.6"
         fill="#000000"
         id="bottom"
         gorn="0.1.2"
         y="19.8288"
         x="0"
         height="1.7712" />
      <polygon
         fill="#141414"
         id="right"
         gorn="0.1.3"
         points="21.6,2.16,21.06,3.9312,21.06,19.8288,21.6,21.6" />
      <polygon
         fill="#1F1F1F"
         id="left"
         gorn="0.1.4"
         points="0,2.16,0.54,3.9312,0.54,19.8288,0,21.6" />
      <polygon
         fill="#1C1C1C"
         id="left-upper-rect"
         gorn="0.1.5"
         points="3.6,8.28,0.54,8.2512,0.4032,9.7776,0.4032,11.88,3.6,11.88" />
      <polygon
         fill="#383838"
         id="left-lower-rect"
         gorn="0.1.6"
         points="0.54,15.516,3.6,15.516,3.6,11.88,0.4032,11.88,0.4032,13.9824" />
      <path
         fill="#262626"
         id="slot"
         gorn="0.1.7"
         d="M0.4032,9.7776l0,4.1976c1.0584,-0.1224,1.8864,-1.008,1.8864,-2.1024C2.2896,10.7784,1.4688,9.9,0.4032,9.7776z" />
      <path
         fill="#303030"
         id="cover"
         gorn="0.1.8"
         d="M0.54,3.9312L0.54,8.244c1.7136,0.324,3.0168,1.8216,3.0168,3.6288c0,1.8072,-1.296,3.312,-3.0168,3.636L0.54,15.516l3.6,0L4.14,3.9312L0.54,3.9312z" />
      <text
         font-size="5.76"
         id="label"
         gorn="0.1.10"
         y="19.399265"
         x="22.773232"
         style="font-size:5.76000023px;font-family:OCRA;text-anchor:start;display:none;fill:#dddddd;stroke:none">IC</text>
      <rect
         width="2.16"
         fill="#8C8C8C"
         id="connector0pin"
         gorn="0.1.11"
         y="20.6352"
         x="2.52"
         height="3.1248" />
      <rect
         width="2.16"
         fill="#8C8C8C"
         id="connector0terminal"
         gorn="0.1.12"
         y="21.6"
         x="2.52"
         height="2.16" />
      <polygon
         fill="#8C8C8C"
         points="2.52,20.6352,2.52,22.0752,4.68,22.0752,6.12,21.4128,6.12,20.6352"
         id="polygon71" />
      <rect
         width="2.16"
         fill="#8C8C8C"
         id="connector5pin"
         gorn="0.1.14"
         x="2.52"
         height="3.1248" />
      <rect
         width="2.16"
         fill="#8C8C8C"
         id="connector5terminal"
         gorn="0.1.15"
         x="2.52"
         height="2.16" />
      <polygon
         fill="#8C8C8C"
         points="6.12,3.1248,6.12,2.3472,4.68,1.6848,2.52,1.6848,2.52,3.1248"
         id="polygon75" />
      <rect
         width="2.16"
         fill="#8C8C8C"
         id="connector2pin"
         gorn="0.1.17"
         y="20.6352"
         x="16.92"
         height="3.1248" />
      <rect
         width="2.16"
         fill="#8C8C8C"
         id="connector2terminal"
         gorn="0.1.18"
         y="21.6"
         x="16.92"
         height="2.16" />
      <polygon
         fill="#8C8C8C"
         points="15.48,20.6352,15.48,21.4128,16.92,22.0752,19.08,22.0752,19.08,20.6352"
         id="polygon79" />
      <rect
         width="2.16"
         fill="#8C8C8C"
         id="connector3pin"
         gorn="0.1.20"
         y="0"
         x="16.92"
         height="3.1248" />
      <rect
         width="2.16"
         fill="#8C8C8C"
         id="connector3terminal"
         gorn="0.1.21"
         y="0"
         x="16.92"
         height="2.16" />
      <polygon
         fill="#8C8C8C"
         points="19.08,3.1248,19.08,1.6848,16.92,1.6848,15.48,2.3472,15.48,3.1248"
         id="polygon83" />
      <rect
         width="2.16"
         fill="#8C8C8C"
         id="connector1pin"
         gorn="0.1.23"
         y="20.6352"
         x="9.72"
         height="3.1248" />
      <rect
         width="2.16"
         fill="#8C8C8C"
         id="connector1terminal"
         gorn="0.1.24"
         y="21.6"
         x="9.72"
         height="2.16" />
      <polygon
         fill="#8C8C8C"
         points="8.28,20.6352,8.28,21.4128,9.72,22.0752,11.88,22.0752,13.32,21.4128,13.32,20.6352"
         id="polygon87" />
      <rect
         width="2.16"
         fill="#8C8C8C"
         id="connector4pin"
         gorn="0.1.26"
         y="0"
         x="9.72"
         height="3.1248" />
      <rect
         width="2.16"
         fill="#8C8C8C"
         id="connector4terminal"
         gorn="0.1.27"
         x="9.72"
         height="2.16" />
      <polygon
         fill="#8C8C8C"
         points="13.32,3.1248,13.32,2.3472,11.88,1.6848,9.72,1.6848,8.28,2.3472,8.28,3.1248"
         id="polygon91" />
      <text
         font-size="5.76"
         id="text"
         gorn="0.1.10"
         y="13.493874"
         x="3.1766615"
         style="font-size:5.76000023px;font-family:OCRA;text-anchor:start;fill:#dddddd;stroke:none;stroke-width:1">
        <tspan
           style="font-size:4px"
           id="tspan123">YM2151</tspan>
      </text>
    </g>
  </g>
</svg>
